<svg xmlns="http://www.w3.org/2000/svg" xmlns:xlink="http://www.w3.org/1999/xlink" width="16" height="16" viewBox="0 0 16 16" fill="none"><defs><rect id="path_0" x="0" y="0" width="16.000000000000018" height="16"></rect></defs><g opacity="1" transform="translate(0 -1.7053025658242404e-13)  rotate(0 8.000000000000009 8)"><g><path id="路径 1 (轮廓)" fill-rule="evenodd" fill="currentColor" transform="translate(2.5 2.5)  rotate(-180 5.5 5.5)" opacity="1" d="M5.5,1L11,1L11,0L5.5,0C4.75,0 4.04,0.14 3.36,0.43C2.7,0.71 2.12,1.1 1.61,1.61C1.1,2.12 0.71,2.7 0.43,3.36C0.14,4.04 0,4.75 0,5.5L0,11L1,11L1,5.5C1,4.89 1.12,4.31 1.35,3.75C1.58,3.21 1.9,2.73 2.32,2.32C2.73,1.9 3.21,1.58 3.75,1.35C4.31,1.12 4.89,1 5.5,1Z "></path></g></g></svg>